<?xml version="1.0" encoding="utf-8"?>
<!-- Generator: Adobe Illustrator 16.0.0, SVG Export Plug-In . SVG Version: 6.00 Build 0)  -->
<!DOCTYPE svg PUBLIC "-//W3C//DTD SVG 1.1//EN" "http://www.w3.org/Graphics/SVG/1.1/DTD/svg11.dtd">
<svg version="1.1" id="Layer_1" xmlns="http://www.w3.org/2000/svg" xmlns:xlink="http://www.w3.org/1999/xlink" x="0px" y="0px"
	 width="100px" height="40px" viewBox="0 0 100 40" enable-background="new 0 0 100 40" xml:space="preserve">
<path fill="none" stroke="#000000" stroke-linecap="round" stroke-linejoin="round" stroke-miterlimit="10" d="M62.726,25.047
	H52.609h5.022 M38.75,20.05c0-2.754-2.242-4.998-4.997-4.998H9.12 M38.75,20.05c0,2.755,2.242,4.997,4.997,4.997h3.743 M9.12,15.053
	h53.631"/>
<circle fill="none" stroke="#000000" stroke-linecap="round" stroke-linejoin="round" stroke-miterlimit="10" cx="26.854" cy="15.053" r="2.56"/>
<circle fill="none" stroke="#000000" stroke-linecap="round" stroke-linejoin="round" stroke-miterlimit="10" cx="16.713" cy="15.053" r="2.56"/>
<circle fill="none" stroke="#000000" stroke-linecap="round" stroke-linejoin="round" stroke-miterlimit="10" cx="60.19" cy="25.048" r="2.56"/>
<circle fill="none" stroke="#000000" stroke-linecap="round" stroke-linejoin="round" stroke-miterlimit="10" cx="50.049" cy="25.048" r="2.56"/>
<path fill="none" stroke="#000000" stroke-linecap="round" stroke-linejoin="round" stroke-miterlimit="10" d="M86.093,25.047h5.021
	 M72.232,20.05c0-2.754-2.241-4.998-4.996-4.998H42.602 M72.232,20.05c0,2.755,2.243,4.997,4.999,4.997h3.741"/>
<circle fill="none" stroke="#000000" stroke-linecap="round" stroke-linejoin="round" stroke-miterlimit="10" cx="60.19" cy="15.053" r="2.56"/>
<circle fill="none" stroke="#000000" stroke-linejoin="round" stroke-miterlimit="10" cx="93.674" cy="25.048" r="2.56"/>
<circle fill="none" stroke="#000000" stroke-linejoin="round" stroke-miterlimit="10" cx="83.533" cy="25.048" r="2.56"/>
<circle fill="none" stroke="#000000" stroke-linecap="round" stroke-linejoin="round" stroke-miterlimit="10" cx="50.049" cy="15.053" r="2.56"/>
<circle fill="none" stroke="#000000" stroke-linecap="round" stroke-linejoin="round" stroke-miterlimit="10" cx="6.56" cy="15.053" r="2.56"/>
</svg>
