<?xml version="1.0" encoding="utf-8"?>
<!-- Generator: Adobe Illustrator 16.0.0, SVG Export Plug-In . SVG Version: 6.00 Build 0)  -->
<!DOCTYPE svg PUBLIC "-//W3C//DTD SVG 1.1//EN" "http://www.w3.org/Graphics/SVG/1.1/DTD/svg11.dtd">
<svg version="1.1" id="Layer_1" xmlns="http://www.w3.org/2000/svg" xmlns:xlink="http://www.w3.org/1999/xlink" x="0px" y="0px"
	 width="100px" height="100px" viewBox="0 0 100 100" enable-background="new 0 0 100 100" xml:space="preserve">
<path id="repoPushSvg" fill="none" stroke="#000000" stroke-miterlimit="10" d="M95.427,59.786c0,1.803-1.644,3.264-3.671,3.264
	H77.07c-2.028,0-3.672-1.461-3.672-3.264v-8.157c0-1.803,1.644-3.264,3.672-3.264h14.686c2.027,0,3.671,1.461,3.671,3.264V59.786z"
	/>
<path id="commitSvg" fill="none" stroke="#000000" stroke-miterlimit="10" d="M40.59,62.52c-1.127,0-2.041-1.026-2.041-2.295v-9.184
	c0-1.268,0.914-2.296,2.041-2.296h5.101c1.127,0,2.041,1.028,2.041,2.296v9.184c0,1.269-0.914,2.295-2.041,2.295H40.59z"/>
<rect x="34.899" y="55.827" width="16.483" height="9.756"/>
<polygon fill="#FFFFFF" stroke="#000000" stroke-miterlimit="10" points="53.464,53.764 63.33,53.764 63.33,51.298 70.73,56.23 
	63.33,61.164 63.33,58.697 53.464,58.697 "/>
<text transform="matrix(0.9071 0.4208 -0.4208 0.9071 40.6289 61.876)" fill="#FFFFFF" font-family="'OCRAStd'" font-size="4.4036">T</text>
<g>
	<path d="M14.662,33.71v0.374c2.32,0,4.418,0.94,5.94,2.46c1.521,1.522,2.461,3.62,2.461,5.94c0,2.321-0.94,4.419-2.461,5.94
		c-1.522,1.521-3.619,2.46-5.94,2.46c-2.321,0-4.418-0.939-5.94-2.46c-1.521-1.521-2.46-3.619-2.46-5.94
		c0-2.32,0.94-4.418,2.46-5.94c1.521-1.521,3.619-2.46,5.94-2.46V33.71v-0.374c-5.052,0-9.147,4.096-9.147,9.147
		c0,5.052,4.096,9.147,9.147,9.147s9.149-4.095,9.149-9.147c0-5.052-4.096-9.147-9.149-9.147V33.71z"/>
	<circle cx="18.548" cy="41.693" r="0.963"/>
	<circle cx="10.568" cy="41.693" r="0.963"/>
	<polyline points="12.907,51.633 19.927,51.633 19.927,50.887 12.907,50.887 	"/>
	<polyline points="12.907,65.297 12.907,79.336 9.398,79.336 9.398,65.297 	"/>
	<polyline points="19.927,65.297 19.927,79.336 16.418,79.336 16.418,65.297 	"/>
	<rect x="14.857" y="78.947" width="7.019" height="3.51"/>
	<rect x="5.888" y="78.947" width="7.019" height="3.51"/>
	<polygon points="4.735,57.498 4.735,63.756 3.532,63.756 3.532,55.773 3.532,55.354 2.785,55.354 2.785,55.773 2.785,64.502 
		5.482,64.502 5.482,57.498 	"/>
	<polygon points="26.76,55.328 32.721,51.859 33.553,52.691 24.896,57.727 24.412,57.242 23.884,57.771 24.775,58.662 34.767,52.85 
		32.841,50.924 26.383,54.684 	"/>
	<path d="M35.423,47.992v0.374c1.195,0.002,2.161,0.969,2.164,2.164c-0.003,1.195-0.969,2.161-2.164,2.164
		c-1.196-0.003-2.162-0.969-2.164-2.164c0.003-1.195,0.969-2.162,2.164-2.164V47.992v-0.374c-1.608,0-2.911,1.304-2.911,2.911
		c0,1.607,1.303,2.91,2.911,2.91c1.606,0,2.911-1.303,2.911-2.91s-1.303-2.911-2.911-2.911V47.992z"/>
	<path d="M4.134,64.254v0.374c1.195,0.003,2.161,0.97,2.163,2.163c-0.002,1.195-0.968,2.163-2.163,2.164
		c-1.195-0.002-2.162-0.97-2.164-2.164c0.002-1.194,0.969-2.162,2.164-2.163V64.254v-0.373c-1.608,0-2.911,1.305-2.911,2.91
		c0,1.607,1.303,2.912,2.911,2.912c1.607,0,2.91-1.305,2.91-2.912c0-1.605-1.303-2.91-2.91-2.91V64.254z"/>
	<rect x="10.568" y="65.486" width="8.969" height="2.16"/>
	<text transform="matrix(0.939 -0.3439 0.3439 0.939 11.0195 37.7109)" fill="#FFFFFF" font-family="'OCRAStd'" font-size="4.6794">T</text>
	<polygon points="19.927,51.26 19.759,51.594 26.316,54.871 23.438,57.75 19.553,53.866 19.553,64.924 16.418,64.924 12.907,64.924 
		9.772,64.924 9.772,53.866 5.888,57.75 3.01,54.871 9.487,51.633 12.907,51.633 19.927,51.633 19.927,51.26 19.759,51.594 
		19.927,51.26 19.927,50.887 12.907,50.887 9.31,50.887 1.748,54.666 5.888,58.808 9.025,55.67 9.025,65.671 12.907,65.671 
		16.418,65.671 20.3,65.671 20.3,55.67 23.438,58.808 27.577,54.666 20.014,50.887 19.927,50.887 	"/>
	<path d="M26.221,34.071L6.243,40.729c0,0-2.219-6.659,4.44-8.878c6.66-2.22,8.879,4.439,8.879,4.439"/>
	<path d="M5.535,42.147l-0.354-1.063c-0.026-0.078-0.635-1.941-0.324-4.12c0.298-2.084,1.489-4.848,5.472-6.175
		c3.981-1.328,6.593,0.169,8.083,1.657c0.842,0.842,1.413,1.771,1.763,2.459l5.69-1.897l0.709,2.126L5.535,42.147z"/>
	<path fill="#FFFFFF" d="M11.44,34.114l0.033,0.093c0.031,0.083,0.012,0.143-0.081,0.177c-0.093,0.034-0.146,0-0.176-0.083
		l-0.128-0.35l1.274-0.467l0.129,0.35c0.031,0.083,0.012,0.143-0.081,0.176c-0.093,0.034-0.146,0.001-0.177-0.082l-0.034-0.093
		l-0.25,0.092l0.594,1.62c0.03,0.083,0.011,0.142-0.082,0.177c-0.093,0.033-0.146,0-0.176-0.082l-0.593-1.62L11.44,34.114z"/>
</g>
</svg>
