<?xml version="1.0" encoding="utf-8"?>
<!-- Generator: Adobe Illustrator 16.0.0, SVG Export Plug-In . SVG Version: 6.00 Build 0)  -->
<!DOCTYPE svg PUBLIC "-//W3C//DTD SVG 1.1//EN" "http://www.w3.org/Graphics/SVG/1.1/DTD/svg11.dtd">
<svg version="1.1" id="Layer_1" xmlns="http://www.w3.org/2000/svg" xmlns:xlink="http://www.w3.org/1999/xlink" x="0px" y="0px"
	 width="100px" height="100px" viewBox="0 0 100 100" enable-background="new 0 0 100 100" xml:space="preserve">
<circle fill="#FFFFFF" stroke="#000000" stroke-miterlimit="10" cx="48.286" cy="18.918" r="12.386"/>
<path stroke="#000000" stroke-width="3" stroke-miterlimit="10" d="M64.602,7.042l-28.2,9.399c0,0-3.133-9.399,6.267-12.533
	c9.4-3.134,12.533,6.266,12.533,6.266"/>
<circle stroke="#FFFFFF" stroke-miterlimit="10" cx="42.507" cy="18.094" r="1.653"/>
<circle stroke="#FFFFFF" stroke-miterlimit="10" cx="54.064" cy="18.094" r="1.653"/>
<line fill="none" stroke="#000000" stroke-miterlimit="10" x1="45.808" y1="31.304" x2="55.717" y2="31.304"/>
<polyline points="45.808,51.12 45.808,70.937 40.854,70.937 40.854,51.12 "/>
<polyline points="55.717,51.12 55.717,70.937 50.763,70.937 50.763,51.12 "/>
<rect x="48.561" y="70.386" width="9.908" height="4.954"/>
<rect x="35.9" y="70.386" width="9.908" height="4.954"/>
<g>
	<line fill="#FFFFFF" stroke="#000000" stroke-miterlimit="10" x1="33.423" y1="37.083" x2="33.423" y2="49.469"/>
	<rect x="32.047" y="37.083" fill="#FFFFFF" stroke="#000000" stroke-miterlimit="10" width="2.752" height="12.385"/>
</g>
<g>
	<line fill="#FFFFFF" stroke="#000000" stroke-miterlimit="10" x1="62.575" y1="37.083" x2="62.575" y2="49.469"/>
	<rect x="61.199" y="37.083" fill="#FFFFFF" stroke="#000000" stroke-miterlimit="10" width="2.752" height="12.385"/>
</g>
<circle fill="#FFFFFF" stroke="#000000" stroke-miterlimit="10" cx="62.576" cy="51.12" r="3.581"/>
<circle fill="#FFFFFF" stroke="#000000" stroke-miterlimit="10" cx="33.423" cy="51.12" r="3.581"/>
<rect x="42.506" y="51.386" width="12.66" height="3.05"/>
<text transform="matrix(0.939 -0.3439 0.3439 0.939 43.1436 12.1807)" fill="#FFFFFF" font-family="'OCRAStd'" font-size="6.6055">T</text>
<polyline fill="#FFFFFF" stroke="#000000" stroke-miterlimit="10" points="55.717,31.304 65.625,36.258 60.672,41.212
	55.717,36.258 55.717,51.12 50.763,51.12 45.809,51.12 40.854,51.12 40.854,36.258 35.9,41.212 30.946,36.258 40.854,31.304
	45.808,31.304 "/>
<text transform="matrix(0.8264 0 0 1 34.7993 87.1309)" font-family="'MyriadPro-Regular'" font-size="11.5596">TIMMY</text>
</svg>
