<?xml version="1.0" encoding="utf-8"?>
<!-- Generator: Adobe Illustrator 16.0.0, SVG Export Plug-In . SVG Version: 6.00 Build 0)  -->
<!DOCTYPE svg PUBLIC "-//W3C//DTD SVG 1.1//EN" "http://www.w3.org/Graphics/SVG/1.1/DTD/svg11.dtd">
<svg version="1.1" id="Layer_1" xmlns="http://www.w3.org/2000/svg" xmlns:xlink="http://www.w3.org/1999/xlink" x="0px" y="0px"
	 width="100px" height="100px" viewBox="0 0 100 100" enable-background="new 0 0 100 100" xml:space="preserve">
<g>
	<path d="M47.338,19.674v0.5c3.106,0,5.915,1.258,7.952,3.294c2.036,2.037,3.294,4.845,3.294,7.951c0,3.107-1.258,5.915-3.294,7.952
		c-2.037,2.036-4.845,3.293-7.952,3.293c-3.107,0-5.915-1.258-7.952-3.293c-2.036-2.037-3.293-4.845-3.293-7.952
		c0-3.106,1.258-5.915,3.293-7.951c2.037-2.036,4.845-3.293,7.952-3.294V19.674v-0.5c-6.763,0-12.245,5.482-12.245,12.245
		c0,6.763,5.482,12.245,12.245,12.245c6.762,0,12.246-5.482,12.246-12.245c0-6.763-5.483-12.245-12.246-12.245V19.674z"/>
	<circle cx="52.54" cy="30.36" r="1.289"/>
	<circle cx="41.857" cy="30.36" r="1.289"/>
	<polyline points="44.989,43.666 54.385,43.666 54.385,42.666 44.989,42.666 	"/>
	<polyline points="44.989,61.957 44.989,80.75 40.292,80.75 40.292,61.957 	"/>
	<polyline points="54.385,61.957 54.385,80.75 49.688,80.75 49.688,61.957 	"/>
	<rect x="47.599" y="80.229" width="9.396" height="4.697"/>
	<rect x="35.593" y="80.229" width="9.396" height="4.697"/>
	<polygon points="34.049,51.516 34.049,59.893 32.439,59.893 32.439,49.207 32.439,48.646 31.439,48.646 31.439,49.207 
		31.439,60.893 35.049,60.893 35.049,51.516 	"/>
	<polygon points="63.531,48.612 71.511,43.968 72.625,45.083 61.038,51.823 60.388,51.174 59.681,51.881 60.876,53.075 
		74.25,45.294 71.673,42.716 63.027,47.748 	"/>
	<path d="M75.129,38.792v0.5c1.599,0.003,2.893,1.297,2.896,2.896c-0.003,1.599-1.297,2.893-2.896,2.896
		c-1.601-0.003-2.894-1.296-2.896-2.896c0.003-1.6,1.296-2.894,2.896-2.896V38.792v-0.5c-2.153,0-3.896,1.745-3.896,3.896
		s1.743,3.896,3.896,3.896c2.151,0,3.896-1.744,3.896-3.896c0-2.152-1.744-3.896-3.896-3.896V38.792z"/>
	<path d="M33.244,60.561v0.5c1.6,0.003,2.893,1.298,2.896,2.896c-0.003,1.599-1.296,2.894-2.896,2.896
		c-1.599-0.003-2.893-1.298-2.896-2.896c0.003-1.599,1.297-2.894,2.896-2.896V60.561v-0.5c-2.152,0-3.896,1.745-3.896,3.896
		c0,2.151,1.744,3.896,3.896,3.896c2.152,0,3.896-1.745,3.896-3.896c0-2.151-1.744-3.896-3.896-3.896V60.561z"/>
	<rect x="41.857" y="62.209" width="12.006" height="2.893"/>
	<text transform="matrix(0.939 -0.3439 0.3439 0.939 42.4619 25.0293)" fill="#FFFFFF" font-family="'OCRAStd'" font-size="6.264">T</text>
	<polygon points="54.385,43.166 54.161,43.613 62.938,48 59.084,51.854 53.885,46.655 53.885,61.457 49.688,61.457 44.989,61.457 
		40.792,61.457 40.792,46.655 35.593,51.854 31.74,48 40.41,43.666 44.989,43.666 54.385,43.666 54.385,43.166 54.161,43.613 
		54.385,43.166 54.385,42.666 44.989,42.666 40.173,42.666 30.051,47.725 35.593,53.269 39.792,49.07 39.792,62.457 44.989,62.457 
		49.688,62.457 54.885,62.457 54.885,49.069 59.084,53.269 64.625,47.725 54.503,42.666 54.385,42.666 	"/>
	<path d="M62.811,20.157L36.068,29.07c0,0-2.971-8.914,5.943-11.885c8.915-2.971,11.885,5.943,11.885,5.943"/>
	<path d="M35.12,30.968l-0.474-1.423c-0.035-0.104-0.85-2.598-0.434-5.515c0.399-2.791,1.993-6.49,7.325-8.267
		c5.329-1.777,8.826,0.226,10.82,2.219c1.127,1.127,1.891,2.37,2.36,3.292l7.618-2.539l0.949,2.846L35.12,30.968z"/>
	<path fill="#FFFFFF" d="M43.025,20.214l0.045,0.124c0.041,0.111,0.016,0.191-0.109,0.237c-0.124,0.045-0.195,0.001-0.236-0.11
		l-0.172-0.469l1.706-0.625l0.172,0.469c0.041,0.111,0.016,0.191-0.108,0.236c-0.125,0.045-0.196,0.001-0.236-0.11l-0.046-0.124
		l-0.335,0.123l0.795,2.168c0.04,0.11,0.014,0.19-0.11,0.236c-0.124,0.045-0.195,0.001-0.235-0.109l-0.794-2.168L43.025,20.214z"/>
</g>
</svg>
